# xmcd
#
# Track frame offsets:
#	150
#	12752
#	24497
#	42154
#	56059
#	69802
#	85549
#	99001
#	113460
#	127533
#	139926
#	153305
#	167499
#	184884
#	198866
#	213796
#	227255
#
# Disc length: 3202 seconds
#
# Revision: 1
# Processed by: cddbd v1.5.2PL0 Copyright (c) Steve Scherf et al.
# Submitted via: EZCDAudioConverter 3.1.5.1
#
DISCID=b90c8011
DTITLE=Various Artist - Best Of Blues 2
DYEAR=2012
DGENRE=Blues
TTITLE0=Little Walter - Last Night
TTITLE1=T-Bone Walker - Wanderin Heart
TTITLE2=Charles Brown - Driftin' Blues
TTITLE3=Guitar Slim - Story Of My Life
TTITLE4=Muddy Waters - Walking Blues
TTITLE5=Eddie Boyd - 24 Hours
TTITLE6=Howling Wolf - Evil Is Going On
TTITLE7=Christine Kittrell - Slave To Love
TTITLE8=T-Bone Walker - Stormy Monday
TTITLE9=Lloyd Price - Ain't That A Shame
TTITLE10=Lightning Hopkins - Anothe Fool In Town
TTITLE11=Earl Hooker - Sweet Angel
TTITLE12=Muddy Waters - Sad Sad Day
TTITLE13=Guitar Slim - The Things That I Used To Do
TTITLE14=Eddie Boyd - Third Degree
TTITLE15=BB King - Where My Heart Beats Like A Hammer
TTITLE16=Percy Mayfield - The River's Invitation
EXTD=
EXTT0=
EXTT1=
EXTT2=
EXTT3=
EXTT4=
EXTT5=
EXTT6=
EXTT7=
EXTT8=
EXTT9=
EXTT10=
EXTT11=
EXTT12=
EXTT13=
EXTT14=
EXTT15=
EXTT16=
PLAYORDER=
